<svg width="24" height="34" viewBox="0 0 24 34" fill="none" xmlns="http://www.w3.org/2000/svg">
<path fill-rule="evenodd" clip-rule="evenodd" d="M22.1001 10.2C22.1001 4.57301 17.527 0 11.9 0C6.27301 0 1.7 4.57301 1.7 10.2C1.7 17.85 11.9 28.9001 11.9 28.9001C11.9 28.9001 22.1001 17.85 22.1001 10.2ZM8.50002 10.2C8.50002 8.33002 10.03 6.80002 11.9 6.80002C13.77 6.80002 15.3 8.33002 15.3 10.2C15.3 12.07 13.787 13.6 11.9 13.6C10.03 13.6 8.50002 12.07 8.50002 10.2ZM0 30.6001V34.0001H23.8001V30.6001H0Z" fill="#84818A"/>
</svg>
