<svg width="35" height="24" viewBox="0 0 35 24" fill="none" xmlns="http://www.w3.org/2000/svg">
<path fill-rule="evenodd" clip-rule="evenodd" d="M0 3C0 1.34315 1.34315 0 3 0H31.4348C33.0916 0 34.4348 1.34315 34.4348 3V21C34.4348 22.6569 33.0916 24 31.4348 24H3C1.34314 24 0 22.6569 0 21V3Z" fill="#1F7BF4"/>
<path fill-rule="evenodd" clip-rule="evenodd" d="M6.68896 18.1514V12.7979H12.3876L12.9989 13.5907L13.6306 12.7979H34.315V17.7822C34.315 17.7822 33.7741 18.1461 33.1485 18.1514H21.6951L21.0057 17.3075V18.1514H18.7469V16.7109C18.7469 16.7109 18.4383 16.9119 17.7712 16.9119H17.0023V18.1514H13.5822L12.9717 17.3416L12.3518 18.1514H6.68896Z" fill="white"/>
<path fill-rule="evenodd" clip-rule="evenodd" d="M0.0341797 8.76279L1.31923 5.78271H3.5416L4.27088 7.45203V5.78271H7.03349L7.46763 6.98925L7.88852 5.78271H20.2898V6.38928C20.2898 6.38928 20.9417 5.78271 22.0131 5.78271L26.0368 5.7967L26.7535 7.44417V5.78271H29.0654L29.7017 6.72905V5.78271H32.0348V11.1363H29.7017L29.0919 10.1869V11.1363H25.6952L25.3537 10.2924H24.4405L24.1045 11.1363H21.801C20.8791 11.1363 20.2898 10.5421 20.2898 10.5421V11.1363H16.8166L16.1273 10.2924V11.1363H3.21237L2.87102 10.2924H1.96079L1.62185 11.1363H0.0341797L0.0341797 8.76279Z" fill="white"/>
<path fill-rule="evenodd" clip-rule="evenodd" d="M0.0410156 10.4512L1.77427 6.44263H3.0883L4.8199 10.4512H3.66661L3.34845 9.64852H1.48926L1.16946 10.4512H0.0410156ZM2.98225 8.77823L2.41554 7.37555L1.84718 8.77823H2.98225Z" fill="#1F7BF4"/>
<path fill-rule="evenodd" clip-rule="evenodd" d="M4.93896 10.4507V6.44214L6.54254 6.44806L7.47523 9.03256L8.3856 6.44214H9.97635V10.4507H8.96887V7.49703L7.90092 10.4507H7.01737L5.94644 7.49703V10.4507H4.93896Z" fill="#1F7BF4"/>
<path fill-rule="evenodd" clip-rule="evenodd" d="M10.6655 10.4507V6.44214H13.9531V7.3388H11.6836V8.02448H13.9001V8.8684H11.6836V9.58045H13.9531V10.4507H10.6655Z" fill="#1F7BF4"/>
<path fill-rule="evenodd" clip-rule="evenodd" d="M14.5366 10.4512V6.44263H16.7786C17.5215 6.44263 18.1871 6.89957 18.1871 7.74312C18.1871 8.46423 17.6259 8.92871 17.0818 8.97438L18.4075 10.4512H17.1763L15.9683 9.02712H15.5441V10.4512H14.5366ZM16.6957 7.33929H15.5441V8.1832H16.7106C16.9126 8.1832 17.173 8.02756 17.173 7.76125C17.173 7.55424 16.972 7.33929 16.6957 7.33929Z" fill="#1F7BF4"/>
<path fill-rule="evenodd" clip-rule="evenodd" d="M19.6268 10.4507H18.5981V6.44214H19.6268V10.4507Z" fill="#1F7BF4"/>
<path fill-rule="evenodd" clip-rule="evenodd" d="M22.0659 10.4507H21.8438C20.7695 10.4507 20.1172 9.60881 20.1172 8.46292C20.1172 7.28873 20.7622 6.44214 22.1189 6.44214H23.2324V7.39154H22.0782C21.5274 7.39154 21.1379 7.81908 21.1379 8.47281C21.1379 9.24913 21.5833 9.57518 22.2249 9.57518H22.4901L22.0659 10.4507Z" fill="#1F7BF4"/>
<path fill-rule="evenodd" clip-rule="evenodd" d="M22.5249 10.4512L24.2582 6.44263H25.5722L27.3038 10.4512H26.1505L25.8323 9.64852H23.9731L23.6533 10.4512H22.5249ZM25.4661 8.77823L24.8994 7.37555L24.3311 8.77823H25.4661Z" fill="#1F7BF4"/>
<path fill-rule="evenodd" clip-rule="evenodd" d="M27.4219 10.4507V6.44214H28.7028L30.3383 8.9607V6.44214H31.3457V10.4507H30.1063L28.4294 7.86625V10.4507H27.4219Z" fill="#1F7BF4"/>
<path fill-rule="evenodd" clip-rule="evenodd" d="M7.37793 17.4656V13.457H10.6655V14.3537H8.39601V15.0394H10.6125V15.8833H8.39601V16.5953H10.6655V17.4656H7.37793Z" fill="#1F7BF4"/>
<path fill-rule="evenodd" clip-rule="evenodd" d="M23.4873 17.4656V13.457H26.7749V14.3537H24.5054V15.0394H26.7112V15.8833H24.5054V16.5953H26.7749V17.4656H23.4873Z" fill="#1F7BF4"/>
<path fill-rule="evenodd" clip-rule="evenodd" d="M10.7935 17.4656L12.3942 15.4861L10.7554 13.457H12.0247L13.0007 14.7114L13.98 13.457H15.1995L13.5823 15.4613L15.1859 17.4656H13.9168L12.9692 16.2311L12.0445 17.4656H10.7935Z" fill="#1F7BF4"/>
<path fill-rule="evenodd" clip-rule="evenodd" d="M15.3052 17.4664V13.4578H17.5306C18.4437 13.4578 18.9772 14.0432 18.9772 14.8061C18.9772 15.727 18.297 16.2005 17.3997 16.2005H16.3392V17.4664H15.3052ZM17.456 14.3643H16.3392V15.2873H17.4527C17.7469 15.2873 17.9531 15.0934 17.9531 14.8258C17.9531 14.541 17.7459 14.3643 17.456 14.3643Z" fill="#1F7BF4"/>
<path fill-rule="evenodd" clip-rule="evenodd" d="M19.415 17.4656V13.457H21.657C22.3999 13.457 23.0655 13.914 23.0655 14.7575C23.0655 15.4786 22.5043 15.9431 21.9602 15.9888L23.2859 17.4656H22.0547L20.8467 16.0415H20.4225V17.4656H19.415ZM21.5742 14.3537H20.4225V15.1976H21.5891C21.791 15.1976 22.0514 15.042 22.0514 14.7756C22.0514 14.5686 21.8504 14.3537 21.5742 14.3537Z" fill="#1F7BF4"/>
<path fill-rule="evenodd" clip-rule="evenodd" d="M27.2412 17.4656V16.5953H29.2575C29.5558 16.5953 29.685 16.435 29.685 16.2591C29.685 16.0906 29.5562 15.9202 29.2575 15.9202H28.3463C27.5544 15.9202 27.1133 15.4402 27.1133 14.7196C27.1133 14.0769 27.5172 13.457 28.6941 13.457H30.656L30.2318 14.359H28.535C28.2107 14.359 28.1108 14.5283 28.1108 14.6899C28.1108 14.8561 28.2342 15.0394 28.482 15.0394H29.4364C30.3193 15.0394 30.7024 15.5375 30.7024 16.1899C30.7024 16.8912 30.2755 17.4656 29.3884 17.4656H27.2412Z" fill="#1F7BF4"/>
<path fill-rule="evenodd" clip-rule="evenodd" d="M30.939 17.4656V16.5953H32.9552C33.2536 16.5953 33.3828 16.435 33.3828 16.2591C33.3828 16.0906 33.254 15.9202 32.9552 15.9202H32.0441C31.2521 15.9202 30.811 15.4402 30.811 14.7196C30.811 14.0769 31.215 13.457 32.3918 13.457H34.3538L33.9296 14.359H32.2328C31.9084 14.359 31.8086 14.5283 31.8086 14.6899C31.8086 14.8561 31.932 15.0394 32.1797 15.0394H33.1342C34.0171 15.0394 34.4002 15.5375 34.4002 16.1899C34.4002 16.8912 33.9733 17.4656 33.0861 17.4656H30.939Z" fill="#1F7BF4"/>
</svg>
