<svg width="35" height="24" viewBox="0 0 35 24" fill="none" xmlns="http://www.w3.org/2000/svg">
<path fill-rule="evenodd" clip-rule="evenodd" d="M0 3C0 1.34315 1.34315 0 3 0H31.4348C33.0916 0 34.4348 1.34315 34.4348 3V21C34.4348 22.6569 33.0916 24 31.4348 24H3C1.34314 24 0 22.6569 0 21V3Z" fill="#202020"/>
<g opacity="0.01">
<rect x="6.78271" y="5.21729" width="20.7731" height="13.5496" fill="white"/>
</g>
<rect x="14.4302" y="7.57788" width="5.47984" height="8.82675" fill="#FF5F00"/>
<path fill-rule="evenodd" clip-rule="evenodd" d="M14.9947 11.9921C14.9933 10.27 15.795 8.64284 17.1686 7.57955C14.835 5.77086 11.4838 6.03431 9.47018 8.18475C7.45656 10.3352 7.45656 13.6506 9.47018 15.8011C11.4838 17.9515 14.835 18.215 17.1686 16.4063C15.7945 15.3427 14.9928 13.7148 14.9947 11.9921Z" fill="#EB001B"/>
<path fill-rule="evenodd" clip-rule="evenodd" d="M25.9726 15.409V16.1655H25.8937V15.409H25.7251V15.2524H26.1519V15.409H25.9726ZM26.8012 15.2524V16.1655H26.7115V15.4742L26.5716 16.0677H26.4748L26.3349 15.4742V16.1655H26.2416V15.2524H26.3707L26.5214 15.9046L26.6721 15.2524H26.8012Z" fill="#FFA043"/>
<path fill-rule="evenodd" clip-rule="evenodd" d="M26.3779 11.9921C26.3779 14.1412 25.1336 16.1017 23.1735 17.0408C21.2134 17.98 18.8816 17.733 17.1685 16.4047C18.5415 15.3405 19.3432 13.7136 19.3432 11.9913C19.3432 10.2691 18.5415 8.64215 17.1685 7.57796C18.8816 6.24967 21.2134 6.00266 23.1735 6.94181C25.1336 7.88097 26.3779 9.84142 26.3779 11.9906V11.9921Z" fill="#FFA043"/>
</svg>
