<svg width="35" height="24" viewBox="0 0 35 24" fill="none" xmlns="http://www.w3.org/2000/svg">
<path d="M0.5 3C0.5 1.61929 1.61929 0.5 3 0.5H31.4348C32.8155 0.5 33.9348 1.61929 33.9348 3V21C33.9348 22.3807 32.8155 23.5 31.4348 23.5H3C1.61929 23.5 0.5 22.3807 0.5 21V3Z" fill="white" stroke="#E8E8E8"/>
<path fill-rule="evenodd" clip-rule="evenodd" d="M14.8395 6.26099H18.3999C19.4027 6.26099 20.592 6.29358 21.3876 6.99523C21.9191 7.46397 22.198 8.21079 22.1335 9.0125C21.9152 11.7312 20.289 13.2539 18.1083 13.2539H16.3523C16.0535 13.2539 15.8554 13.4519 15.7711 13.9883L15.2811 17.1054C15.2493 17.3076 15.1616 17.4268 15.0016 17.4412H12.8084C12.565 17.4412 12.4785 17.255 12.5421 16.8518L14.1215 6.85247C14.1848 6.45175 14.404 6.26099 14.8395 6.26099Z" fill="#0B438D"/>
<path fill-rule="evenodd" clip-rule="evenodd" d="M17.129 9.39136H20.6858C22.5953 9.39136 23.3143 10.358 23.2033 11.7804C23.0202 14.1254 21.6024 15.422 19.7219 15.422H18.7724C18.5147 15.422 18.3413 15.5924 18.2711 16.0554L17.8638 18.7436C17.8374 18.9182 17.7456 19.0208 17.6076 19.0332H15.3774C15.1675 19.0332 15.0929 18.8727 15.1478 18.5249L16.5098 9.90151C16.5643 9.55587 16.7533 9.39136 17.129 9.39136Z" fill="#00AAFF"/>
<path fill-rule="evenodd" clip-rule="evenodd" d="M15.6523 13.8368L16.274 9.90144C16.3287 9.5559 16.5178 9.39138 16.8934 9.39138H20.4502C21.0391 9.39138 21.5147 9.48328 21.8875 9.65256C21.5301 12.0722 19.9652 13.4166 17.9159 13.4166H16.1598C15.9288 13.4166 15.7561 13.5347 15.6523 13.8368Z" fill="#0B438D"/>
</svg>
