<svg width="22" height="22" viewBox="0 0 22 22" fill="none" xmlns="http://www.w3.org/2000/svg">
<path fill-rule="evenodd" clip-rule="evenodd" d="M17.06 22H18.72C19.56 22 20.25 21.3597 20.35 20.5393L22 4.05184H17V0H15.03V4.05184H10.06L10.36 6.39291C12.07 6.86312 13.67 7.71351 14.63 8.65393C16.07 10.0746 17.06 11.5452 17.06 13.9463V22ZM0 20.9995V20.0091H15.03V20.9995C15.03 21.5498 14.58 22 14.02 22H1.01C0.45 22 0 21.5498 0 20.9995ZM15.03 13.9964C15.03 5.99272 0 5.99272 0 13.9964H15.03ZM0.02 16.0073H15.02V18.0082H0.02V16.0073Z" fill="#84818A"/>
</svg>
