<svg width="32" height="24" viewBox="0 0 32 24" fill="none" xmlns="http://www.w3.org/2000/svg">
<path fill-rule="evenodd" clip-rule="evenodd" d="M6.73688 0H1.68422C0.757899 0 0 0.757899 0 1.68422V21.8948C0 22.8212 0.757899 23.5791 1.68422 23.5791H6.73688C7.6632 23.5791 8.4211 22.8212 8.4211 21.8948V1.68422C8.4211 0.757899 7.6632 0 6.73688 0ZM30.3159 0H25.2633C24.337 0 23.5791 0.757899 23.5791 1.68422V21.8948C23.5791 22.8212 24.337 23.5791 25.2633 23.5791H30.3159C31.2423 23.5791 32.0002 22.8212 32.0002 21.8948V1.68422C32.0002 0.757899 31.2423 0 30.3159 0ZM18.5264 0H13.4738C12.5474 0 11.7895 0.757899 11.7895 1.68422V21.8948C11.7895 22.8212 12.5474 23.5791 13.4738 23.5791H18.5264C19.4527 23.5791 20.2106 22.8212 20.2106 21.8948V1.68422C20.2106 0.757899 19.4527 0 18.5264 0Z" fill="#84818A"/>
</svg>
