<svg width="37" height="37" viewBox="0 0 37 37" fill="none" xmlns="http://www.w3.org/2000/svg">
<path fill-rule="evenodd" clip-rule="evenodd" d="M18.5 11.7727C14.7831 11.7727 11.7727 14.7831 11.7727 18.5C11.7727 22.2168 14.7831 25.2272 18.5 25.2272C22.2168 25.2272 25.2272 22.2168 25.2272 18.5C25.2272 14.7831 22.2168 11.7727 18.5 11.7727ZM33.5354 16.8181C32.7617 9.80498 27.1949 4.23817 20.1818 3.46454V0H16.8181V3.46454C9.80498 4.23817 4.23817 9.80498 3.46454 16.8181H0V20.1818H3.46454C4.23817 27.1949 9.80498 32.7617 16.8181 33.5354V36.9999H20.1818V33.5354C27.1949 32.7617 32.7617 27.1949 33.5354 20.1818H36.9999V16.8181H33.5354ZM18.5 30.2727C11.9913 30.2727 6.72726 25.0086 6.72726 18.5C6.72726 11.9913 11.9913 6.72726 18.5 6.72726C25.0086 6.72726 30.2727 11.9913 30.2727 18.5C30.2727 25.0086 25.0086 30.2727 18.5 30.2727Z" fill="#1F7BF4"/>
</svg>
