<svg width="30" height="32" viewBox="0 0 30 32" fill="none" xmlns="http://www.w3.org/2000/svg">
<path fill-rule="evenodd" clip-rule="evenodd" d="M20 15V5L15 0L10 5V8.33333H0V31.6667H30V15H20ZM6.66667 28.3333H3.33333V25H6.66667V28.3333ZM6.66667 21.6667H3.33333V18.3333H6.66667V21.6667ZM6.66667 15H3.33333V11.6667H6.66667V15ZM16.6667 28.3333H13.3333V25H16.6667V28.3333ZM16.6667 21.6667H13.3333V18.3333H16.6667V21.6667ZM16.6667 15H13.3333V11.6667H16.6667V15ZM16.6667 8.33333H13.3333V5H16.6667V8.33333ZM26.6667 28.3333H23.3333V25H26.6667V28.3333ZM26.6667 21.6667H23.3333V18.3333H26.6667V21.6667Z" fill="#84818A"/>
</svg>
