<svg width="35" height="24" viewBox="0 0 35 24" fill="none" xmlns="http://www.w3.org/2000/svg">
<path fill-rule="evenodd" clip-rule="evenodd" d="M0 3C0 1.34315 1.34315 0 3 0H31.4348C33.0916 0 34.4348 1.34315 34.4348 3V21C34.4348 22.6569 33.0916 24 31.4348 24H3C1.34314 24 0 22.6569 0 21V3Z" fill="#0B438D"/>
<path fill-rule="evenodd" clip-rule="evenodd" d="M15.6637 15.5184H13.8169L14.972 8.5625H16.8187L15.6637 15.5184Z" fill="white"/>
<path fill-rule="evenodd" clip-rule="evenodd" d="M22.3587 8.73266C21.9945 8.59192 21.4167 8.43652 20.7023 8.43652C18.8785 8.43652 17.5942 9.38366 17.5864 10.7378C17.5712 11.7368 18.5059 12.2917 19.2049 12.6249C19.9194 12.9653 20.1623 13.1874 20.1623 13.4909C20.155 13.9569 19.585 14.1717 19.0532 14.1717C18.3159 14.1717 17.9208 14.0609 17.3205 13.8017L17.0773 13.6905L16.8188 15.252C17.252 15.4441 18.05 15.6147 18.8785 15.6222C20.8163 15.6222 22.0779 14.6897 22.0928 13.2467C22.1002 12.4548 21.6067 11.8481 20.5426 11.3523C19.8967 11.034 19.5011 10.8194 19.5011 10.4938C19.5087 10.1977 19.8357 9.8945 20.5649 9.8945C21.1652 9.87965 21.6064 10.0202 21.9405 10.1608L22.1076 10.2347L22.3587 8.73266Z" fill="white"/>
<path fill-rule="evenodd" clip-rule="evenodd" d="M25.6645 8.5625H27.093L28.5829 15.5183H26.8729C26.8729 15.5183 26.7056 14.7191 26.6526 14.4749H24.2814C24.2129 14.6598 23.8938 15.5183 23.8938 15.5183H21.9561L24.6992 9.13963C24.8893 8.68819 25.224 8.5625 25.6645 8.5625ZM25.5507 11.108C25.5507 11.108 24.9654 12.6546 24.8134 13.0542H26.3484C26.2725 12.7064 25.9227 11.0414 25.9227 11.0414L25.7937 10.442C25.7393 10.5964 25.6607 10.8085 25.6077 10.9517C25.5718 11.0487 25.5476 11.114 25.5507 11.108Z" fill="white"/>
<path fill-rule="evenodd" clip-rule="evenodd" d="M12.2744 8.5625L10.4658 13.3057L10.2682 12.3438C9.93379 11.2338 8.88511 10.0278 7.71484 9.4281L9.37148 15.511H11.3244L14.2273 8.5625H12.2744V8.5625Z" fill="white"/>
<path fill-rule="evenodd" clip-rule="evenodd" d="M8.78638 8.5625H5.81507L5.78467 8.70305C8.10248 9.28028 9.63752 10.6717 10.2682 12.3441L9.62227 9.14721C9.51593 8.70295 9.18913 8.57715 8.78638 8.5625Z" fill="white"/>
</svg>
